<svg xmlns="http://www.w3.org/2000/svg" viewBox="0 0 445.65 386.55">
    <title>logo3</title>
    <g id="blue">
        <path style="fill:#1e0fe8" d="M345.85,48.94l.12.94.3-1.1,4.27-15.46C346,37.83,345.27,43.84,345.85,48.94Zm0,0,.12.94.3-1.1,4.27-15.46C346,37.83,345.27,43.84,345.85,48.94Z"/>
        <path style="fill:#1e0fe8" d="M346.27,48.78l-.3,1.1-.12-.94Z"/>
        <path style="fill:#4379ff" d="M427,17.44a2.87,2.87,0,0,0-3.57-2.23c-1.79.49-4.26,1.14-7,1.79-6.51,1.52-14.65,3-19.32,2.34-8.66-1.25-16.08-5.53-27.39-3.42a36.51,36.51,0,0,0-17.74,8.48c-9.46-.26-19.34,12.54-27.93,24s-4.07,15.23,2,19.16v0l-.87-.54c-.11.33-.23,1.88-.35,2.22-4.12,11.78-8,27.59-27.09,38.06-26.89,14.7-74.09,1.67-122,8.15-24.07,3.27-35.93,8.42-45.84,16.88h0c-23.64,20.17-29.3,61.69-31.65,79-.11.74-.21,1.5-.29,2.24-1.72,13.74-2.09,27.16-10.35,39.42A62.64,62.64,0,0,1,65,272.91a2.89,2.89,0,0,0-1.5,2.61c.21,6.72.07,31.06-11.37,48.36a2.84,2.84,0,0,0,1.07,4.1c1.56.74,9.55,1.34,14.53,1a2.09,2.09,0,0,0,2-1.93c.07-.85.12-2,.15-3.27.13-4.56.16-11.25.16-15.9,0-23.71,58.13-59.58,65.11-66.68,10.25-10.4,21.89-23,30.34-37.47,0,0,0,0,0,0,1.35-.91,2.12-2.16,4.66-3.54l.05,0a78.46,78.46,0,0,1,9.46-4.32h0a77.77,77.77,0,0,1,23.14-5h0a73.92,73.92,0,0,1,13.95.53,56,56,0,0,1,5.78,1.08h0c1.9.44,3.75,1,5.58,1.58a120.65,120.65,0,0,1,20.71,9.63c5.75,3.23,11.37,6.58,17,9.49h0c7,3.59,14,6.46,21.39,7.44h0c.72.1,1.42.17,2.16.23a38.86,38.86,0,0,0,8.79-.27c.2,0,.42,0,.62-.09l.06.28c2.77,13.24,10.05,56.41,1.6,83.08a47.6,47.6,0,0,0-2.42,16.31,5.36,5.36,0,0,0,3.85,4.91,51.87,51.87,0,0,0,5.75,1.23,83.48,83.48,0,0,0,12.67,1s-4.29-38.56,2.4-77.63c2.83-16.52,7.52-31.71,15-43.85.28-.44.55-.89.85-1.33,10.11-15.49,28.92-30.81,33.65-52.12,4.52-20.43,2.74-36.53,1.65-50-.63-7.83-1-14.76.21-21.14a19.08,19.08,0,0,1,2.92-6.91A27.61,27.61,0,0,1,381.77,69a34.86,34.86,0,0,1,4.92-3.76A20.07,20.07,0,0,0,391,63.24a44.83,44.83,0,0,0,9.4-7.36h0c7.05-7.06,21.14-9.8,25.78-22.11h0a25.26,25.26,0,0,0,1.5-8.54A41.59,41.59,0,0,0,427,17.44Zm-80.7,31.34-.3,1.1-.12-.94c-.58-5.1.11-11.11,4.69-15.62Z"/>
        <path style="fill:#1e0fe8" d="M186.94,196.33a19.07,19.07,0,0,0-6,5.92,27.46,27.46,0,0,0-1.69,3.39c-3.54,8.28-5.54,20.7-12.06,29.66-11.18,15.37-29.41,29.86-39.76,44.78-.41.56-.79,1.12-1.16,1.7a15.48,15.48,0,0,1-.46,2c-.25.84-.32,1.83-.94,2.29-9.65,7.06.42,39.34-.6,40.12-3.67,2.81-13.23,4.22-16.82,1.49-.06-2.34,2.11-43.44,2-45.54-.12-1.81-.24-3.5-.38-5.09-.06-.79-.13-1.54-.2-2.26,0-.53-.11-1-.16-1.54-.08-.74-.16-1.45-.24-2.11-.14-1.29-.3-2.4-.42-3.3.78-1.15,1.85-3.41,3.23-4.31s2.59-3,3.85-3.93a74.86,74.86,0,0,1,8.2-7.06c4.36-4.17,8.44-6.34,12.4-11,3.36-3.95,6.62-7.93,9.88-11.74,5.58-6.53,10.78-13.24,15.87-20.15a48.11,48.11,0,0,1,8.64-9.47.05.05,0,0,1,.05,0,22.76,22.76,0,0,1,4.21-2.65,20.71,20.71,0,0,1,2.54-1,17.52,17.52,0,0,1,2.71-.64,0,0,0,0,1,0,0l.3,0A14.56,14.56,0,0,1,186.94,196.33Z"/>
        <path style="fill:#1e0fe8" d="M303.27,223.56l-3.6-2.39c-.15.58-.35-1.27-.59-.72a2.92,2.92,0,0,1-.14.31l-.06-.27-.62.08a38.3,38.3,0,0,1-8.79.28c-.74-.06-1.44-.13-2.16-.23h0c-7.38-1-14.4-3.85-21.39-7.45h0c-5.62-2.9-11.24-6.26-17-9.48a119.9,119.9,0,0,0-20.71-9.63c-1.83-.6-22.42-3.28-24.31-3.73,5.41-.66-5.58-8.42-.37-7.24,2.08.47,39.6,11.56,41.43,12.18,16,5.38,43.33,2.22,44.52,2.18C300.31,197.12,303.47,222.77,303.27,223.56Z"/>
        <path style="fill:#1e0fe8" d="M391,63.24a19.88,19.88,0,0,1-4.29,2A35.55,35.55,0,0,0,381.77,69a28.21,28.21,0,0,0-4.66,5.36,19.15,19.15,0,0,0-2.92,6.91c-1.23,6.38-.84,13.31-.21,21.14,1.09,13.46,2.87,29.55-1.65,50-4.73,21.31-19.71,37.9-29.82,53.39-14.55,17.82-11.39,75-11.39,112.8,0,3.9.31,8-4.13,8l-6.6.71c-4.05,0-16.25-.34-20.33-1,.3-20.63,8.7-41.25,11.47-61.73q1-7.5,2.39-14.88c2.65-14.14,5.17-27.94,10.22-41.55,0-.11.08-.22.12-.33,6.33-17.05,21.86-33.83,28.51-50.75,7.06-17.94,9.68-34.24,9.09-54.58-.17-5.85,1.42-11.19,2.41-17,1.29-7.45,5-9.25,8.57-12.95A33.78,33.78,0,0,1,376,69.67a34.58,34.58,0,0,1,5.11-3.48l.6-.32c.41-.22.83-.43,1.25-.62a32.1,32.1,0,0,1,4.57-1.78,7.07,7.07,0,0,1,2.95-.3A4.86,4.86,0,0,1,391,63.24Z"/>
        <path style="fill:#1e0fe8" d="M427.68,25.23a25.35,25.35,0,0,1-1.5,8.54h0c-4.64,12.3-18.73,15-25.78,22.1h0a44.49,44.49,0,0,1-9.4,7.36,19.88,19.88,0,0,1-4.29,2A35.55,35.55,0,0,0,381.77,69a28.21,28.21,0,0,0-4.66,5.36,24.17,24.17,0,0,1-4.27-1.77,23.7,23.7,0,0,1-6-4.35h0l-.12-.12c-5.09-5.16-2.05-13.8,4-15.65a8,8,0,0,1,3.34-.32c.57,0,1.14.25,1.75.36,4.8.87,9.29,1.55,13.94-1.89,3.65-2.7,10.63-7.59,18.73-9.87,5.74-1.62,15.31-7.51,15.15-11.21,0-.33.44-.47.67-.7C425.46,27.63,426.59,26.44,427.68,25.23Z"/>
        <path style="fill:#1e0fe8" d="M381.66,65.87a4.69,4.69,0,0,1-.44.79,19.58,19.58,0,0,1,.55,2.29,28.21,28.21,0,0,0-4.66,5.36,19.15,19.15,0,0,0-2.92,6.91c-1.23,6.38-.84,13.31-.21,21.14-5,2-15.33,11.65-9.83-9.41.63-2.41.87-9.75,1.32-12.26.67-3.64,1.31-4.9,1.57-8.52.3-4-2.23-5.48-3.52-8.7a8.86,8.86,0,0,1-.67-4.53c.54-4.44,6.27-8.54,12.66-6.57.25.05-4.27.17-4,.26l.36.13h0c1.82.6,3.63,1.23,5.44,1.84l.58.21a7.23,7.23,0,0,1,.92.47h0a7,7,0,0,1,2.22,1.9A7.18,7.18,0,0,1,382.42,60c0,.13.06.27.08.4a8.5,8.5,0,0,1-.56,4.86C381.85,65.49,381.76,65.68,381.66,65.87Z"/>
        <path style="fill:#1e0fe8" d="M380.62,60.64v-.48a7.81,7.81,0,0,0-2.2-5.33,7.56,7.56,0,0,0-10.66,0,7.86,7.86,0,0,0-2.2,5.33v.48a7.77,7.77,0,0,0,2.2,5.33,7.53,7.53,0,0,0,10.66,0,7.82,7.82,0,0,0,2.2-5.33Z"/>
        <path style="fill:#1e0fe8" d="M124.38,136c-5.16,9.34-11.45,16.36-15.88,26.09-6.52,14.31-7.85,28.72-10,44.53-.2,1.48-1.85,2.73-2.48,3.74-.17-14.05-2.6-29,1.87-42.16C103.73,150.89,117.21,143.07,124.38,136Z"/>
        <path style="fill:#1e0fe8" d="M329.48,69.52c1.4.87,2.91,1.93,4.43,3,6.19,4.53,12.62,10.19,12.62,10.19,5.58-1.27,11.94-8,3.88-20.91a37.59,37.59,0,0,1-1.91-3.41c-.77-1.58-2.77-11.08-2.16-16.19.76-6.35,4.21-7.71,5.41-7.71-10.47,14.64,4.73,23.13,8.86,35.49,3.69,11-5.29,21.38-11.06,23.4-24.41,8.5-28.11,9-59.05,21.14-6.68,2.64,9.21-6,21.64-18.94,9.11-9.52,14.55-24.67,14.6-25.07s2.52-.75,2.62-1.1Z"/>
        <path style="fill:#1e0fe8" d="M180.21,149.28c.31,7.05-1.5,13.14-3.43,20s-12.25,29.5-18.73,37.32c-4.78,5.77,12,7.54,12.5,0,1.54-25.38,91.5-8,82.13-9.46-35.86-5.74-62.5-42.24-63.81-50.39-.9-5.59-8.91-4.27-8.66,1.34Z"/>
        <path style="fill:#1e0fe8" d="M365,60.87c11.58,12.72,26.8,8.51,38.09-2.29,3.57-3.41-1.84-8.82-5.41-5.41-8.4,8-18.63,11.77-27.27,2.29-3.32-3.65-8.72,1.78-5.41,5.41Z"/>
        <path style="fill:#1e0fe8" d="M295.19,221.5c4.36,20.05,6.58,41.33,5.11,61.81-.85,11.82-6.13,23.13-6,34.92.11,13.23,16.25,12.74,26.12,12.87,1.91,0,4.06-1.78,3.83-3.83a283.61,283.61,0,0,1-1.29-36.17c.43-22.82,2.63-46.47,10.72-68,6.77-18,20.29-30.5,31.11-45.91,11.54-16.43,14.71-35.63,14.29-55.41-.37-17.42-8.88-44.07,10.72-53.71,5.46-2.68,9.49-6.92,14.58-9.92C409.69,55,415,52,419.74,48c5.19-4.38,9.45-9.73,11-16.35,1.3-5.46,2.41-18.1-4.79-20.13-3.28-.93-7.51,1-10.63,1.77-5.16,1.2-10.63,2.52-16,2.35-9-.29-17.18-4.76-26.46-4a42.21,42.21,0,0,0-22.53,9c-1.6,1.25-.87.09.1,0A19.89,19.89,0,0,0,345.2,22c-4.2,1.75-7.79,4.81-11,8A122.29,122.29,0,0,0,324,42.15c-3.15,4.1-6.88,8.42-8.14,13.57-1.72,7,2.78,11.58,8.21,15.17,4.12,2.72,8-3.91,3.86-6.61-2.21-1.47-4.74-2.91-4.76-5.8,0-4.44,5.32-9.73,7.81-12.94,5.31-6.83,11.33-15.07,20.06-17.23,4.31-1.07,7.29-4.3,11.46-6.18,9-4,17.61-2.93,26.8-.57,8,2.05,15,1.8,23,.23,2-.4,4.08-.86,6.11-1.34a14.68,14.68,0,0,1,2.87-.71c1.94,0,.81-1,2.05.67,2,2.69.25,10-.9,12.84-3.31,8.22-15.5,13.75-23.89,19.29-2.78,1.83-4.95,4.53-7.79,6.36s-5.85,2.77-8.49,4.75c-5.84,4.38-10.58,10.19-11.91,17.51-3,16.52,1.77,34,.92,50.72-.51,10.18-1.9,20.85-6.34,30.14-3.66,7.65-8.85,14.45-14.21,21-10.35,12.6-19.64,24.47-25.16,40.06-7.53,21.27-9.77,44.54-10.26,67a285.74,285.74,0,0,0,1.28,37.24l3.82-3.82c-5.07-.07-16.72.86-18.46-5.22-1.44-5,2.21-12.55,3.4-17.33,2.49-10,3.09-20.41,3-30.64a253.92,253.92,0,0,0-5.75-50.8c-1-4.81-8.43-2.77-7.38,2Z"/>
        <path style="fill:#1e0fe8" d="M347.84,30.62c-6.3,6.94-7.16,16.05-4.53,24.83,1.92,6.43,13.44,20.44,2.2,23.6l3.72,1A164.17,164.17,0,0,0,327,63.77c-1.91-1.18-5.25-.17-5.62,2.29C319.76,76.85,313.86,89,306,96.57c-10.36,10.05-24.14,13.19-38.11,14-33.5,2-66.72-3.36-100.13,2.28-23.85,4-43.5,14-55.67,35.66-10.78,19.15-15,41.29-17.79,62.84-2.28,17.39-3.25,34-16.33,47.23a57.68,57.68,0,0,1-8.73,7.24c-2.2,1.49-5.08,2.58-7,4.38-3.46,3.22-2.49,7.67-2.65,12-.46,13.35-3.25,26.37-9.77,38.11-6.65,11.95,9.1,14.06,17.86,12.54,5.92-1,5.88-5.88,6-10.83.13-5.91-.92-12.81.9-18.54,2.75-8.68,10.09-16,16.47-22.12,13.71-13.25,29.68-23.4,44.39-35.38,10.89-8.87,20.48-21,28.39-32.58,2-3,3.06-6.08,5.76-8.13a43.42,43.42,0,0,1,11.07-5.73,74.24,74.24,0,0,1,22.2-4.85c20-1.13,35.8,7.63,52.65,17.16,13.76,7.78,27.94,14.54,44.38,12.32,4.86-.65,2.79-8-2-7.38-15.86,2.14-29.76-6.59-42.73-14-12.81-7.3-25.87-14.05-40.74-15.53a80.82,80.82,0,0,0-40.84,7c-4.09,1.83-8.56,4-11.43,7.56-5.43,6.77-9.62,14.52-15.33,21.19-6.28,7.34-12.72,14.61-20.49,20.39-7.25,5.39-14.56,10.67-21.66,16.25-13.73,10.77-33,24.85-37.71,42.72-1.16,4.4-.77,9-.81,13.53,0,1.69.15,9.25,0,9.35-1.22.88-9,.16-10.31-.55-2.13-1.16,0,.43.63-.54,1-1.67,1.91-3.37,2.74-5.13A76.86,76.86,0,0,0,62.43,311a96.87,96.87,0,0,0,4.22-20.21c.46-4.19-.09-8.83.69-12.93.51-2.67,1.94-2.91,4.37-4.47a72,72,0,0,0,8.81-6.63C92,256.62,97.77,243.51,99.91,228.57c3.25-22.77,5.11-45.69,14.34-67.09,4.64-10.77,11.12-21,20.56-28.23s21.24-10.52,32.89-12.64c19.89-3.61,40.12-3.5,60.25-2.83,16.34.54,32.91,1.74,49.19-.41,13.95-1.84,27.22-7.17,36.73-17.92,7.28-8.22,13.25-20.44,14.92-31.36l-5.62,2.29a161.07,161.07,0,0,1,19.35,13.94c4.38,3.68,9.37,1.44,12.69-2.89C366.57,66.6,339.67,51,353.26,36c3.3-3.64-2.1-9.07-5.42-5.41Z"/>
        <path style="fill:#1e0fe8" d="M202.83,187c-11,1.39-22.09,6-26.85,16.67-5,11.24-6.6,23-14.51,32.84-8.15,10.18-17.88,19-26.66,28.55-7.93,8.65-16.36,18.61-18.49,30.51a36.41,36.41,0,0,0,1.07,16c.69,2.6,1.59,5.14,2.39,7.72s1.81,3.87-.44,5.09c-1.72.93-5.44,0-7.36,0-1.25,0-2.24-1.08-1.51.19-.19-.34.93-4.44.93-4.43a137.07,137.07,0,0,0,2.18-21,184.21,184.21,0,0,0-.4-18.8c-.17-2.37-.37-4.75-.62-7.11-.18-1.7,0-6.52-1-7.87l-.14-.9q-2.58,5-.2,2.74c1.26-.39,2.75-2.13,3.8-3,2-1.56,4-3.14,5.9-4.76q8.81-7.37,16.88-15.54a212.14,212.14,0,0,0,14.53-16.32c5-6.29,8.84-13.8,14-19.88,7.41-8.76,25.3-12.25,36.52-13.06,4.89-.36,4.93-8,0-7.66a84.82,84.82,0,0,0-36.42,10.86c-4.75,2.75-6.2,5.34-9.22,10a182.08,182.08,0,0,1-16,21.17,232.61,232.61,0,0,1-31.57,29.75c-3.25,2.55-5.72,3.46-5.56,7.66.25,6.65,1.56,13.3,1.82,20a171.36,171.36,0,0,1-.28,19.23,112.32,112.32,0,0,1-1.56,12.4c-.55,2.92-2.44,6.85-1.28,9.88,2.43,6.34,18.32,5.39,22.84,2.17,3-2.12,3.31-5.38,2.7-8.75-1.21-6.66-4.65-12.67-4.83-19.58-.4-14.93,13-27.54,22.56-37.45,10.5-10.87,23.1-21.65,29.25-35.78,2.67-6.13,4.23-12.61,6.52-18.88,3.4-9.33,11.46-13.83,21.05-15C207.66,194.08,207.72,186.42,202.83,187Z"/>
        <path style="fill:#1e0fe8" d="M127.12,129.69c-12.74,11.22-20.18,27.06-25.05,43.05a197.71,197.71,0,0,0-5.3,22.54c-1,5.83-.9,13-3.06,18.52h7.38c-4-28.05,1.41-65,30.67-78.1,4.48-2,.6-8.61-3.87-6.61-12.82,5.75-23.06,18.6-28.8,31.07-8,17.32-8,37.13-5.38,55.68.59,4.18,6.19,3,7.38,0,2-5.05,1.9-11.8,2.83-17.17a204.14,204.14,0,0,1,4.61-20.74c4.49-15.9,11.37-31.71,24-42.82C136.24,131.84,130.81,126.45,127.12,129.69Z"/>
        <path style="fill:#1e0fe8" d="M58,327a5.25,5.25,0,0,0,7-1c2.73-3,0-6.91-3.7-6.36A12.26,12.26,0,0,0,54.41,323c-2.5,2.21-.49,6.56,2.69,6.5a18.75,18.75,0,0,0,13.28-5.46,3.83,3.83,0,0,0-.77-6c-4.44-2.27-9-2.27-13.11.74l4.61,6c4.08-3.87,5.76-8.74,6.73-14.18,1.36-7.62,2.52-14.11,7.67-20.29,10-12,23.81-21.05,37.84-27.6,4.43-2.07.57-8.64-3.85-6.57-14.07,6.57-27.45,15.64-37.95,27.18-4.62,5.07-8.22,10.75-9.73,17.5-1.41,6.34-1,13.79-6.09,18.57-3.06,2.9,1.06,8.58,4.61,6q2.16-2.24,5.43-.74l-.77-6a10.59,10.59,0,0,1-7.9,3.24l2.69,6.5,3.5-1.44-3.7-6.36,2.26-.23c-4.26-2.44-8.1,4.14-3.85,6.58Z"/>
        <path style="fill:#1e0fe8" d="M299.64,314.15c-.84,7.5-2.08,15.09-2.51,22.62-.29,5.26.61,9.85,4.41,13.66,2.57,2.59,7.65,0,6.36-3.7-3.25-9.35-2.73-17.92-.87-27.49.93-4.79-6.41-6.84-7.34-2-2.11,10.83-2.81,21,.87,31.54l6.37-3.7c-3.95-4-1.92-10.79-1.37-15.72l1.7-15.18c.54-4.86-7.08-4.82-7.62,0Z"/>
        <path style="fill:#1e0fe8" d="M297,327a14.85,14.85,0,0,0,1.93,11.24,14.33,14.33,0,0,0,3.78,4c.86.59,1.92.91,2.75,1.5l-.43-1a6.79,6.79,0,0,1-1.52,1.14l5.73,3.29-.11-1.69c-.3-4.87-7.92-4.9-7.61,0l.1,1.69c.17,2.72,3.16,5,5.73,3.29,3.6-2.34,7-6.42,4.42-10.87-1.27-2.16-3.48-2.42-5.22-3.95a7,7,0,0,1-2.21-6.55c.94-4.79-6.4-6.84-7.34-2Z"/>
        <path style="fill:#1e0fe8" d="M331,294.59c0,15.93,17.5,4.8,17.5,19.5,0,7.74-5.34,10.39-10.42,10.14s-30.35,2.06-30.35,2.06l15.13-28.24Z"/>
        <path style="fill:#1e0fe8" d="M123.33,298.77c0,12.73,14,3.84,14,15.59,0,6.18-4.27,8.31-8.33,8.1s-24.26,1.65-24.26,1.65l12.09-22.57Z"/>
        <path style="fill:#1e0fe8" d="M76.43,297.93c-9.87,19.21,17.35,7.33,17.35,20.87,0,0-7.08,2.93-11,2.74s-23.15,1.57-23.15,1.57l11.54-21.53Z"/>
        <rect style="fill:#1e0fe8" x="25" y="319.25" width="344.24" height="37.68" rx="8.76" ry="8.76"/>
        <path style="fill:#1e0fe8" d="M19.15,343.27H375.1a9,9,0,0,1,9,9v21.77a0,0,0,0,1,0,0h-374a0,0,0,0,1,0,0V352.29A9,9,0,0,1,19.15,343.27Z"/>
    </g>
</svg>
